# Blender v2.68 (sub 0) OBJ File: ''
# www.blender.org
v -0.094884 0.292024 0.000000
v -0.180481 0.248410 0.000000
v -0.248410 0.180481 0.000000
v -0.292024 0.094884 0.000000
v -0.307052 -0.000000 0.000000
v -0.292024 -0.094884 0.000000
v -0.248410 -0.180481 0.000000
v -0.094884 -0.292024 0.000000
v -0.079822 0.292024 -0.051298
v -0.151830 0.248410 -0.097575
v -0.208976 0.180481 -0.134301
v -0.245666 0.094884 -0.157880
v -0.258309 -0.000000 -0.166005
v -0.245666 -0.094884 -0.157880
v -0.208976 -0.180481 -0.134301
v -0.151830 -0.248410 -0.097575
v -0.079822 -0.292024 -0.051298
v -0.039416 0.292024 -0.086310
v -0.074974 0.248410 -0.164171
v -0.103193 0.180481 -0.225962
v -0.121311 0.094884 -0.265634
v -0.127554 -0.000000 -0.279304
v -0.121311 -0.094884 -0.265634
v -0.103193 -0.180481 -0.225962
v -0.074974 -0.248410 -0.164171
v -0.039416 -0.292024 -0.086310
v 0.013504 0.292024 -0.093919
v 0.025685 0.248410 -0.178644
v 0.035353 0.180481 -0.245882
v 0.041559 0.094884 -0.289052
v 0.043698 -0.000000 -0.303927
v 0.041559 -0.094884 -0.289052
v 0.035353 -0.180481 -0.245882
v 0.025685 -0.248410 -0.178644
v 0.013504 -0.292024 -0.093919
v 0.062136 0.292024 -0.071709
v 0.118190 0.248410 -0.136398
v 0.162674 0.180481 -0.187736
v 0.191235 0.094884 -0.220697
v 0.201076 -0.000000 -0.232054
v 0.191235 -0.094884 -0.220697
v 0.162674 -0.180481 -0.187736
v 0.118190 -0.248410 -0.136398
v 0.062136 -0.292024 -0.071709
v 0.091041 0.292024 -0.026732
v 0.173170 0.248410 -0.050847
v 0.238348 0.180481 -0.069985
v 0.280195 0.094884 -0.082273
v 0.294614 -0.000000 -0.086507
v 0.280195 -0.094884 -0.082273
v 0.238348 -0.180481 -0.069985
v 0.173170 -0.248410 -0.050847
v 0.091041 -0.292024 -0.026732
v 0.000000 -0.307052 0.000000
v 0.091041 0.292024 0.026732
v 0.173170 0.248410 0.050847
v 0.238348 0.180481 0.069985
v 0.280195 0.094884 0.082273
v 0.294614 -0.000000 0.086507
v 0.280195 -0.094884 0.082273
v 0.238348 -0.180481 0.069985
v 0.173170 -0.248410 0.050847
v 0.091041 -0.292024 0.026732
v 0.062136 0.292024 0.071709
v 0.118190 0.248410 0.136398
v 0.162674 0.180481 0.187736
v 0.191235 0.094884 0.220697
v 0.201076 -0.000000 0.232055
v 0.191235 -0.094884 0.220697
v 0.162674 -0.180481 0.187736
v 0.118190 -0.248410 0.136398
v 0.062136 -0.292024 0.071709
v 0.013504 0.292024 0.093919
v 0.025685 0.248410 0.178644
v 0.035353 0.180481 0.245882
v 0.041559 0.094884 0.289052
v 0.043698 -0.000000 0.303927
v 0.041559 -0.094884 0.289052
v 0.035353 -0.180481 0.245882
v 0.025685 -0.248410 0.178644
v 0.013504 -0.292024 0.093919
v 0.000000 0.307052 0.000000
v -0.039416 0.292024 0.086310
v -0.074974 0.248410 0.164171
v -0.103193 0.180481 0.225962
v -0.121311 0.094884 0.265634
v -0.127554 -0.000000 0.279304
v -0.121311 -0.094884 0.265634
v -0.103193 -0.180481 0.225962
v -0.074974 -0.248410 0.164171
v -0.039416 -0.292024 0.086310
v -0.079822 0.292024 0.051298
v -0.151830 0.248410 0.097575
v -0.208976 0.180481 0.134301
v -0.245666 0.094884 0.157880
v -0.258309 -0.000000 0.166005
v -0.245666 -0.094884 0.157880
v -0.208976 -0.180481 0.134301
v -0.151830 -0.248410 0.097575
v -0.079822 -0.292024 0.051298
v -0.180481 -0.248410 -0.000000
vn -0.948602 -0.150244 -0.278535
vn -0.861995 -0.439208 -0.253104
vn -0.450010 0.883194 -0.132135
vn -0.692341 0.692341 -0.203290
vn -0.861994 0.439208 -0.253104
vn -0.948602 0.150244 -0.278535
vn -0.588317 -0.439208 -0.678954
vn -0.307135 0.883194 -0.354453
vn -0.472528 -0.692341 -0.545326
vn -0.472528 0.692342 -0.545326
vn -0.307135 -0.883194 -0.354452
vn -0.588317 0.439208 -0.678954
vn -0.647427 0.150244 -0.747171
vn -0.647427 -0.150244 -0.747171
vn -0.127854 -0.439208 -0.889241
vn -0.066747 0.883194 -0.464234
vn -0.102690 -0.692341 -0.714226
vn -0.102690 0.692342 -0.714225
vn -0.066747 -0.883194 -0.464234
vn -0.127853 0.439208 -0.889241
vn -0.140699 0.150244 -0.978586
vn -0.140699 -0.150244 -0.978586
vn 0.373203 -0.439208 -0.817200
vn 0.194833 0.883194 -0.426625
vn 0.299751 -0.692341 -0.656363
vn 0.299751 0.692342 -0.656363
vn 0.194833 -0.883194 -0.426624
vn 0.373203 0.439208 -0.817200
vn 0.410700 0.150244 -0.899307
vn 0.410700 -0.150244 -0.899307
vn 0.755770 -0.439208 -0.485704
vn 0.394555 0.883194 -0.253565
vn 0.607023 -0.692341 -0.390110
vn 0.607023 0.692342 -0.390110
vn 0.394554 -0.883194 -0.253565
vn 0.755770 0.439208 -0.485704
vn 0.831704 0.150244 -0.534504
vn 0.831704 -0.150244 -0.534504
vn 0.469008 0.883194 0.000000
vn 0.721570 -0.692341 0.000000
vn 0.721570 0.692342 0.000000
vn 0.469008 -0.883194 0.000000
vn 0.898385 0.439208 0.000000
vn 0.988649 0.150244 0.000000
vn 0.988649 -0.150244 0.000000
vn 0.898385 -0.439208 0.000000
vn 0.394555 0.883194 0.253565
vn 0.607023 -0.692341 0.390110
vn 0.607023 0.692342 0.390110
vn 0.394554 -0.883194 0.253565
vn 0.755770 0.439208 0.485704
vn 0.831704 0.150244 0.534504
vn 0.831704 -0.150244 0.534504
vn 0.755770 -0.439208 0.485704
vn 0.299751 -0.692341 0.656363
vn 0.299751 0.692342 0.656363
vn 0.194833 -0.883194 0.426624
vn 0.373203 0.439208 0.817200
vn 0.410700 0.150244 0.899307
vn 0.410700 -0.150244 0.899307
vn 0.373203 -0.439208 0.817200
vn 0.194833 0.883194 0.426625
vn -0.102690 -0.692341 0.714226
vn -0.102690 0.692342 0.714225
vn -0.066747 -0.883194 0.464234
vn -0.127854 0.439208 0.889241
vn -0.140700 0.150244 0.978586
vn -0.140700 -0.150244 0.978586
vn -0.127854 -0.439208 0.889241
vn -0.066747 0.883194 0.464234
vn -0.472528 -0.692341 0.545326
vn -0.472528 0.692342 0.545326
vn -0.307135 -0.883194 0.354452
vn -0.588318 0.439208 0.678954
vn -0.647427 0.150244 0.747171
vn -0.647427 -0.150244 0.747171
vn -0.588317 -0.439208 0.678954
vn -0.307135 0.883194 0.354453
vn -0.156269 0.986648 -0.045885
vn -0.692342 -0.692341 -0.203290
vn -0.450009 -0.883194 -0.132135
vn -0.156269 -0.986648 -0.045885
vn -0.106655 -0.986648 -0.123086
vn -0.106655 0.986648 -0.123087
vn -0.023178 -0.986648 -0.161209
vn -0.023178 0.986648 -0.161209
vn 0.067657 -0.986648 -0.148149
vn 0.067657 0.986648 -0.148149
vn 0.137012 -0.986648 -0.088052
vn 0.137012 0.986648 -0.088052
vn 0.162867 -0.986648 0.000000
vn 0.162867 0.986648 0.000000
vn 0.137012 -0.986648 0.088052
vn 0.137012 0.986648 0.088053
vn 0.067657 -0.986648 0.148149
vn 0.067657 0.986648 0.148149
vn -0.023178 -0.986648 0.161209
vn -0.023178 0.986648 0.161209
vn -0.106655 -0.986648 0.123086
vn -0.106655 0.986648 0.123087
vn -0.692341 -0.692341 0.203290
vn -0.692341 0.692342 0.203290
vn -0.450010 -0.883194 0.132135
vn -0.861994 0.439208 0.253104
vn -0.156269 -0.986648 0.045885
vn -0.948602 0.150244 0.278535
vn -0.948602 -0.150244 0.278534
vn -0.156269 0.986648 0.045885
vn -0.861994 -0.439208 0.253104
vn -0.450010 0.883194 0.132135
vn -0.692341 0.692342 -0.203290
vn -0.127854 0.439208 -0.889241
vn 0.607024 -0.692341 -0.390110
vn 0.831705 0.150244 -0.534504
vn 0.410699 0.150244 0.899307
vn -0.140699 -0.150244 0.978586
vn -0.588317 0.439208 0.678954
vn -0.647428 0.150244 0.747171
vn -0.647428 -0.150244 0.747171
vn -0.307135 0.883194 0.354452
vn -0.692341 -0.692341 -0.203290
vn -0.450010 -0.883194 -0.132135
vn -0.692342 -0.692341 0.203290
vn -0.692341 0.692341 0.203290
vn -0.450009 -0.883194 0.132135
vn -0.861995 0.439208 0.253104
vn -0.861995 -0.439208 0.253104
s off
f 6//1 5//1 14//1
f 7//2 6//2 15//2
f 2//3 1//3 10//3
f 3//4 2//4 11//4
f 4//5 3//5 12//5
f 5//6 4//6 13//6
f 15//7 14//7 24//7
f 10//8 9//8 19//8
f 16//9 15//9 25//9
f 11//10 10//10 20//10
f 17//11 16//11 26//11
f 12//12 11//12 21//12
f 13//13 12//13 22//13
f 14//14 13//14 23//14
f 24//15 23//15 33//15
f 19//16 18//16 28//16
f 25//17 24//17 34//17
f 20//18 19//18 29//18
f 26//19 25//19 35//19
f 21//20 20//20 30//20
f 22//21 21//21 31//21
f 23//22 22//22 32//22
f 33//23 32//23 42//23
f 28//24 27//24 37//24
f 34//25 33//25 43//25
f 29//26 28//26 38//26
f 35//27 34//27 44//27
f 30//28 29//28 39//28
f 31//29 30//29 40//29
f 32//30 31//30 41//30
f 42//31 41//31 51//31
f 37//32 36//32 46//32
f 43//33 42//33 52//33
f 38//34 37//34 47//34
f 44//35 43//35 53//35
f 39//36 38//36 48//36
f 40//37 39//37 49//37
f 41//38 40//38 50//38
f 46//39 45//39 56//39
f 52//40 51//40 62//40
f 47//41 46//41 57//41
f 53//42 52//42 63//42
f 48//43 47//43 58//43
f 49//44 48//44 59//44
f 50//45 49//45 60//45
f 51//46 50//46 61//46
f 56//47 55//47 65//47
f 62//48 61//48 71//48
f 57//49 56//49 66//49
f 63//50 62//50 72//50
f 58//51 57//51 67//51
f 59//52 58//52 68//52
f 60//53 59//53 69//53
f 61//54 60//54 70//54
f 71//55 70//55 80//55
f 66//56 65//56 75//56
f 72//57 71//57 81//57
f 67//58 66//58 76//58
f 68//59 67//59 77//59
f 69//60 68//60 78//60
f 70//61 69//61 79//61
f 65//62 64//62 74//62
f 80//63 79//63 90//63
f 75//64 74//64 85//64
f 81//65 80//65 91//65
f 76//66 75//66 86//66
f 77//67 76//67 87//67
f 78//68 77//68 88//68
f 79//69 78//69 89//69
f 74//70 73//70 84//70
f 90//71 89//71 99//71
f 85//72 84//72 94//72
f 91//73 90//73 100//73
f 86//74 85//74 95//74
f 87//75 86//75 96//75
f 88//76 87//76 97//76
f 89//77 88//77 98//77
f 84//78 83//78 93//78
f 1//79 82//79 9//79
f 101//80 7//80 16//80
f 8//81 101//81 17//81
f 54//82 8//82 17//82
f 54//83 17//83 26//83
f 9//84 82//84 18//84
f 54//85 26//85 35//85
f 18//86 82//86 27//86
f 54//87 35//87 44//87
f 27//88 82//88 36//88
f 54//89 44//89 53//89
f 36//90 82//90 45//90
f 54//91 53//91 63//91
f 45//92 82//92 55//92
f 54//93 63//93 72//93
f 55//94 82//94 64//94
f 54//95 72//95 81//95
f 64//96 82//96 73//96
f 54//97 81//97 91//97
f 73//98 82//98 83//98
f 54//99 91//99 100//99
f 83//100 82//100 92//100
f 99//101 98//101 101//101
f 94//102 93//102 3//102
f 100//103 99//103 8//103
f 95//104 94//104 4//104
f 54//105 100//105 8//105
f 96//106 95//106 5//106
f 97//107 96//107 6//107
f 92//108 82//108 1//108
f 98//109 97//109 7//109
f 93//110 92//110 2//110
f 5//1 13//1 14//1
f 6//2 14//2 15//2
f 1//3 9//3 10//3
f 2//111 10//111 11//111
f 3//5 11//5 12//5
f 4//6 12//6 13//6
f 14//7 23//7 24//7
f 9//8 18//8 19//8
f 15//9 24//9 25//9
f 10//10 19//10 20//10
f 16//11 25//11 26//11
f 11//12 20//12 21//12
f 12//13 21//13 22//13
f 13//14 22//14 23//14
f 23//15 32//15 33//15
f 18//16 27//16 28//16
f 24//17 33//17 34//17
f 19//18 28//18 29//18
f 25//19 34//19 35//19
f 20//112 29//112 30//112
f 21//21 30//21 31//21
f 22//22 31//22 32//22
f 32//23 41//23 42//23
f 27//24 36//24 37//24
f 33//25 42//25 43//25
f 28//26 37//26 38//26
f 34//27 43//27 44//27
f 29//28 38//28 39//28
f 30//29 39//29 40//29
f 31//30 40//30 41//30
f 41//31 50//31 51//31
f 36//32 45//32 46//32
f 42//113 51//113 52//113
f 37//34 46//34 47//34
f 43//35 52//35 53//35
f 38//36 47//36 48//36
f 39//114 48//114 49//114
f 40//38 49//38 50//38
f 45//39 55//39 56//39
f 51//40 61//40 62//40
f 46//41 56//41 57//41
f 52//42 62//42 63//42
f 47//43 57//43 58//43
f 48//44 58//44 59//44
f 49//45 59//45 60//45
f 50//46 60//46 61//46
f 55//47 64//47 65//47
f 61//48 70//48 71//48
f 56//49 65//49 66//49
f 62//50 71//50 72//50
f 57//51 66//51 67//51
f 58//52 67//52 68//52
f 59//53 68//53 69//53
f 60//54 69//54 70//54
f 70//55 79//55 80//55
f 65//56 74//56 75//56
f 71//57 80//57 81//57
f 66//58 75//58 76//58
f 67//115 76//115 77//115
f 68//60 77//60 78//60
f 69//61 78//61 79//61
f 64//62 73//62 74//62
f 79//63 89//63 90//63
f 74//64 84//64 85//64
f 80//65 90//65 91//65
f 75//66 85//66 86//66
f 76//67 86//67 87//67
f 77//116 87//116 88//116
f 78//69 88//69 89//69
f 73//70 83//70 84//70
f 89//71 98//71 99//71
f 84//72 93//72 94//72
f 90//73 99//73 100//73
f 85//117 94//117 95//117
f 86//118 95//118 96//118
f 87//119 96//119 97//119
f 88//77 97//77 98//77
f 83//120 92//120 93//120
f 7//121 15//121 16//121
f 101//122 16//122 17//122
f 98//123 7//123 101//123
f 93//124 2//124 3//124
f 99//125 101//125 8//125
f 94//126 3//126 4//126
f 95//106 4//106 5//106
f 96//107 5//107 6//107
f 97//127 6//127 7//127
f 92//110 1//110 2//110
